<svg viewBox="0 0 40 40" fill="none" xmlns="http://www.w3.org/2000/svg" >
    <defs>
      <linearGradient id="cy3d_grad" x1="8" y1="8" x2="32" y2="32" gradientUnits="userSpaceOnUse">
        <stop offset="0%" stop-color="#A855F7" />
        <stop offset="100%" stop-color="#7E22CE" />
      </linearGradient>
      </defs>
    <g>
      <circle cx="20" cy="20" r="14" fill="url(#cy3d_grad)" />
      <circle cx="20" cy="20" r="13" stroke="white" stroke-width="1" stroke-opacity="0.3" />
      <path d="M20 12C15.6 12 12 15.6 12 20H10L13.5 24L17 20H15C15 17.2 17.2 15 20 15C22.8 15 25 17.2 25 20C25 22.8 22.8 25 20 25C18.6 25 17.3 24.4 16.5 23.5L14.4 25.6C15.8 27.1 17.8 28 20 28C24.4 28 28 24.4 28 20C28 15.6 24.4 12 20 12Z" fill="white" />
    </g>
  </svg>
