<svg viewBox="0 0 36 36" fill="none" xmlns="http://www.w3.org/2000/svg" >
    <defs>
      <linearGradient id="x3d_base" x1="6" y1="4" x2="26" y2="32" gradientUnits="userSpaceOnUse">
        <stop offset="0%" stop-color="#10B981" />
        <stop offset="100%" stop-color="#047857" />
      </linearGradient>
      <linearGradient id="x3d_fold" x1="20" y1="4" x2="28" y2="12" gradientUnits="userSpaceOnUse">
        <stop offset="0%" stop-color="#A7F3D0" />
        <stop offset="100%" stop-color="#34D399" />
      </linearGradient>
      <linearGradient id="x3d_badge" x1="10" y1="14" x2="22" y2="28" gradientUnits="userSpaceOnUse">
        <stop offset="0%" stop-color="#065F46" />
        <stop offset="100%" stop-color="#022C22" />
      </linearGradient>
      </defs>
    <g>
      <path d="M7 6C7 4.89543 7.89543 4 9 4H21L29 12V30C29 31.1046 28.1046 32 27 32H9C7.89543 32 7 31.1046 7 30V6Z" fill="url(#x3d_base)" />
      <path d="M21 4V10C21 11.1046 21.8954 12 23 12H29L21 4Z" fill="url(#x3d_fold)" />
      <path d="M9 4.5H20.5L28.5 12.5V30C28.5 30.8284 27.8284 31.5 27 31.5H9C8.17157 31.5 7.5 30.8284 7.5 30V6C7.5 5.17157 8.17157 4.5 9 4.5Z" stroke="white" stroke-opacity="0.25" stroke-width="1" />
      <rect x="23" y="16" width="3.5" height="2" rx="0.5" fill="white" fill-opacity="0.7" />
      <rect x="23" y="20" width="3.5" height="2" rx="0.5" fill="white" fill-opacity="0.7" />
      <rect x="23" y="24" width="3.5" height="2" rx="0.5" fill="white" fill-opacity="0.7" />
      <rect x="5" y="14" width="16" height="14" rx="3.5" fill="url(#x3d_badge)" />
      <rect x="5.5" y="14.5" width="15" height="13" rx="3" stroke="#34D399" stroke-opacity="0.4" />
      <path d="M9 18H10.8L13 21L15.2 18H17L14.1 21.8L17.2 26H15.4L13 22.7L10.6 26H8.8L11.9 21.8L9 18Z" fill="white" />
    </g>
  </svg>
