<svg viewBox="0 0 36 36" fill="none" xmlns="http://www.w3.org/2000/svg" >
    <defs>
      <linearGradient id="qr3d_base" x1="4" y1="4" x2="32" y2="32" gradientUnits="userSpaceOnUse">
        <stop offset="0%" stop-color="#1E293B" />
        <stop offset="100%" stop-color="#0F172A" />
      </linearGradient>
      <linearGradient id="qr3d_accent" x1="6" y1="6" x2="30" y2="30" gradientUnits="userSpaceOnUse">
        <stop offset="0%" stop-color="#FFD233" />
        <stop offset="100%" stop-color="#FFB703" />
      </linearGradient>
      <linearGradient id="qr3d_inner" x1="6" y1="6" x2="30" y2="30" gradientUnits="userSpaceOnUse">
        <stop offset="0%" stop-color="#FFFFFF" />
        <stop offset="100%" stop-color="#F8FAFC" />
      </linearGradient>
      </defs>
    <g>
      {/* Outer 3D Rounded Card */}
      <rect x="4" y="4" width="28" height="28" rx="7" fill="url(#qr3d_base)" />
      <rect x="4.5" y="4.5" width="27" height="27" rx="6.5" stroke="white" stroke-opacity="0.25" stroke-width="1" />
      <rect x="5.5" y="5.5" width="25" height="25" rx="5.5" fill="url(#qr3d_inner)" />
      
      {/* Top-Left QR Target Finder */}
      <rect x="8" y="8" width="7" height="7" rx="2" fill="#0F172A" />
      <rect x="9.5" y="9.5" width="4" height="4" rx="1" fill="#FFFFFF" />
      <rect x="10.5" y="10.5" width="2" height="2" rx="0.5" fill="url(#qr3d_accent)" />

      {/* Top-Right QR Target Finder */}
      <rect x="21" y="8" width="7" height="7" rx="2" fill="#0F172A" />
      <rect x="22.5" y="9.5" width="4" height="4" rx="1" fill="#FFFFFF" />
      <rect x="23.5" y="10.5" width="2" height="2" rx="0.5" fill="url(#qr3d_accent)" />

      {/* Bottom-Left QR Target Finder */}
      <rect x="8" y="21" width="7" height="7" rx="2" fill="#0F172A" />
      <rect x="9.5" y="22.5" width="4" height="4" rx="1" fill="#FFFFFF" />
      <rect x="10.5" y="23.5" width="2" height="2" rx="0.5" fill="url(#qr3d_accent)" />

      {/* Data Pixels with 3D Depth */}
      <rect x="16.5" y="8.5" width="2.5" height="2.5" rx="0.6" fill="#0F172A" />
      <rect x="16.5" y="12.5" width="2.5" height="2.5" rx="0.6" fill="#0F172A" />
      <rect x="12.5" y="16.5" width="2.5" height="2.5" rx="0.6" fill="#0F172A" />
      <rect x="16.5" y="16.5" width="2.5" height="2.5" rx="0.6" fill="url(#qr3d_accent)" />
      <rect x="21" y="16.5" width="2.5" height="2.5" rx="0.6" fill="#0F172A" />
      <rect x="25.5" y="16.5" width="2.5" height="2.5" rx="0.6" fill="#0F172A" />
      <rect x="16.5" y="21" width="2.5" height="2.5" rx="0.6" fill="#0F172A" />
      <rect x="21" y="21" width="2.5" height="2.5" rx="0.6" fill="url(#qr3d_accent)" />
      <rect x="25.5" y="21" width="2.5" height="2.5" rx="0.6" fill="#0F172A" />
      <rect x="16.5" y="25.5" width="2.5" height="2.5" rx="0.6" fill="#0F172A" />
      <rect x="21" y="25.5" width="2.5" height="2.5" rx="0.6" fill="#0F172A" />
      <rect x="25.5" y="25.5" width="2.5" height="2.5" rx="0.6" fill="url(#qr3d_accent)" />
    </g>
  </svg>
