<svg viewBox="0 0 36 36" fill="none" xmlns="http://www.w3.org/2000/svg" >
    <defs>
      <linearGradient id="txt3d_base" x1="6" y1="4" x2="26" y2="32" gradientUnits="userSpaceOnUse">
        <stop offset="0%" stop-color="#6366F1" />
        <stop offset="100%" stop-color="#4338CA" />
      </linearGradient>
      <linearGradient id="txt3d_fold" x1="20" y1="4" x2="28" y2="12" gradientUnits="userSpaceOnUse">
        <stop offset="0%" stop-color="#C7D2FE" />
        <stop offset="100%" stop-color="#818CF8" />
      </linearGradient>
      </defs>
    <g>
      <path d="M7 6C7 4.89543 7.89543 4 9 4H21L29 12V30C29 31.1046 28.1046 32 27 32H9C7.89543 32 7 31.1046 7 30V6Z" fill="url(#txt3d_base)" />
      <path d="M21 4V10C21 11.1046 21.8954 12 23 12H29L21 4Z" fill="url(#txt3d_fold)" />
      <path d="M9 4.5H20.5L28.5 12.5V30C28.5 30.8284 27.8284 31.5 27 31.5H9C8.17157 31.5 7.5 30.8284 7.5 30V6C7.5 5.17157 8.17157 4.5 9 4.5Z" stroke="white" stroke-opacity="0.25" stroke-width="1" />
      <rect x="11" y="16" width="10" height="2" rx="1" fill="white" />
      <rect x="11" y="20" width="14" height="2" rx="1" fill="white" fill-opacity="0.8" />
      <rect x="11" y="24" width="8" height="2" rx="1" fill="#C7D2FE" />
    </g>
  </svg>
