<svg viewBox="0 0 36 36" fill="none" xmlns="http://www.w3.org/2000/svg" >
    <defs>
      <linearGradient id="usr3d_bg" x1="4" y1="4" x2="32" y2="32" gradientUnits="userSpaceOnUse">
        <stop offset="0%" stop-color="#6366F1" />
        <stop offset="100%" stop-color="#4338CA" />
      </linearGradient>
      <linearGradient id="usr3d_head" x1="14" y1="8" x2="22" y2="18" gradientUnits="userSpaceOnUse">
        <stop offset="0%" stop-color="#FFFFFF" />
        <stop offset="100%" stop-color="#E2E8F0" />
      </linearGradient>
      <linearGradient id="usr3d_body" x1="8" y1="19" x2="28" y2="32" gradientUnits="userSpaceOnUse">
        <stop offset="0%" stop-color="#EEF2FF" />
        <stop offset="100%" stop-color="#C7D2FE" />
      </linearGradient>
      </defs>
    <g>
      <circle cx="18" cy="18" r="14" fill="url(#usr3d_bg)" />
      <circle cx="18" cy="18" r="13.5" stroke="white" stroke-opacity="0.3" stroke-width="1" />
      <path d="M7 14C9 8 27 8 29 14" stroke="white" stroke-width="1.2" stroke-linecap="round" stroke-opacity="0.4" />
      <circle cx="18" cy="13.5" r="4.5" fill="url(#usr3d_head)" />
      <circle cx="18" cy="13.5" r="4" stroke="white" stroke-width="0.8" stroke-opacity="0.6" />
      <path d="M10 27C10 22.5 13.5 20 18 20C22.5 20 26 22.5 26 27C26 28 25 29 23.5 29H12.5C11 29 10 28 10 27Z" fill="url(#usr3d_body)" />
      <circle cx="27" cy="10" r="3.2" fill="#10B981" stroke="white" stroke-width="1.2" />
    </g>
  </svg>
